<svg width="18" height="8" viewBox="0 0 18 8" fill="none" xmlns="http://www.w3.org/2000/svg">
<path opacity="0.6" fill-rule="evenodd" clip-rule="evenodd" d="M0.216427 3.89825C0.0721425 4.25029 0 4.63508 0 5.05261C0 5.47015 0.0721425 5.85907 0.216427 6.21927C0.368728 6.57135 0.573131 6.88244 0.829639 7.15261C1.08614 7.4146 1.38273 7.62339 1.71939 7.77894C2.06407 7.92631 2.4328 7.99999 2.82558 7.99999C3.21835 7.99999 3.58307 7.92631 3.91974 7.77894C4.26442 7.62339 4.56503 7.4146 4.82154 7.15261C5.078 6.88244 5.27842 6.57135 5.42271 6.21927C5.57501 5.85907 5.65116 5.47015 5.65116 5.05261C5.65116 4.63508 5.57501 4.25029 5.42271 3.89825C5.27842 3.53801 5.078 3.22691 4.82154 2.96492C4.56503 2.69475 4.26442 2.48598 3.91974 2.33861C3.58307 2.18306 3.21835 2.10528 2.82558 2.10528C2.4328 2.10528 2.06407 2.18306 1.71939 2.33861C1.38273 2.48598 1.08614 2.69475 0.829639 2.96492C0.573131 3.22691 0.368728 3.53801 0.216427 3.89825ZM3.67922 4.02093C3.91168 4.27473 4.02791 4.6186 4.02791 5.05249C4.02791 5.48643 3.91168 5.83028 3.67922 6.08409C3.44676 6.33785 3.1622 6.46478 2.82554 6.46478C2.48887 6.46478 2.20431 6.33785 1.97185 6.08409C1.73939 5.83028 1.62316 5.48643 1.62316 5.05249C1.62316 4.6186 1.73939 4.27473 1.97185 4.02093C2.20431 3.76713 2.48887 3.64023 2.82554 3.64023C3.1622 3.64023 3.44676 3.76713 3.67922 4.02093Z" fill="url(#paint0_linear_0_878)"/>
<path opacity="0.6" d="M9.34103 2.3158C9.41545 2.3158 9.48157 2.31988 9.53947 2.32803C9.60563 2.33617 9.65936 2.34432 9.7007 2.35248C9.75035 2.36063 9.79581 2.36877 9.83715 2.37692V4.08829C9.78756 4.07199 9.72965 4.05162 9.66349 4.02717C9.60563 4.01087 9.53947 3.99865 9.46505 3.9905C9.39063 3.9742 9.30795 3.96605 9.21701 3.96605C8.90277 3.96605 8.64647 4.06792 8.44799 4.27165C8.2578 4.47539 8.16274 4.76063 8.16274 5.12732V7.99999H6.48832V2.37692H7.7286L7.97669 2.98813C8.07593 2.86588 8.19582 2.75587 8.33635 2.65808C8.45212 2.56843 8.5927 2.49101 8.75806 2.42582C8.93172 2.35247 9.12603 2.3158 9.34103 2.3158Z" fill="url(#paint1_linear_0_878)"/>
<path opacity="0.6" fill-rule="evenodd" clip-rule="evenodd" d="M15.7013 6.09149C15.6854 6.13525 15.6684 6.17859 15.6503 6.22149C15.5068 6.57309 15.3074 6.88385 15.0522 7.15368C14.7971 7.41534 14.498 7.62383 14.1552 7.77923C13.8202 7.92638 13.4574 7.99997 13.0667 7.99997C12.676 7.99997 12.3092 7.92638 11.9662 7.77923C11.6313 7.62383 11.3363 7.41534 11.0811 7.15368C10.826 6.88385 10.6226 6.57309 10.4711 6.22149C10.3276 5.86173 10.2558 5.4733 10.2558 5.05628C10.2558 4.63926 10.3276 4.25494 10.4711 3.90333C10.6226 3.54355 10.826 3.23282 11.0811 2.97116C11.3363 2.70132 11.6313 2.49281 11.9662 2.34562C12.3092 2.19026 12.676 2.11258 13.0667 2.11258C13.4574 2.11258 13.8202 2.19026 14.1552 2.34562C14.3152 2.41432 14.4657 2.49639 14.6066 2.59182L18 0L15.4656 3.4887C15.9512 4.27307 16.0297 5.2461 15.7013 6.09149ZM14.6283 1.26858C14.7742 1.4182 15.0108 1.4182 15.1567 1.26858C15.3026 1.11896 15.3026 0.876385 15.1567 0.726768C15.0108 0.577147 14.7742 0.577147 14.6283 0.726768C14.4824 0.876385 14.4824 1.11896 14.6283 1.26858ZM17.2914 3.45728C17.1455 3.6069 16.9089 3.6069 16.7629 3.45728C16.617 3.30766 16.617 3.06508 16.7629 2.91546C16.9089 2.76584 17.1455 2.76584 17.2914 2.91546C17.4373 3.06508 17.4373 3.30766 17.2914 3.45728ZM14.4518 5.05632C14.4518 5.84666 13.827 6.48729 13.0563 6.48729C12.2856 6.48729 11.6608 5.84666 11.6608 5.05632C11.6608 4.26603 12.2856 3.62536 13.0563 3.62536C13.827 3.62536 14.4518 4.26603 14.4518 5.05632ZM13.4572 5.46755C13.2358 5.69457 12.8768 5.69457 12.6554 5.46755C12.434 5.24048 12.434 4.87242 12.6554 4.6454C12.8768 4.41837 13.2358 4.41837 13.4572 4.6454C13.6786 4.87242 13.6786 5.24048 13.4572 5.46755Z" fill="url(#paint2_linear_0_878)"/>
<defs>
<linearGradient id="paint0_linear_0_878" x1="-0.200255" y1="4.91918" x2="2.75159" y2="7.57762" gradientUnits="userSpaceOnUse">
<stop stop-color="#F9CA36"/>
<stop offset="1" stop-color="#F8B830"/>
</linearGradient>
<linearGradient id="paint1_linear_0_878" x1="6.75682" y1="5.67312" x2="9.36602" y2="6.18093" gradientUnits="userSpaceOnUse">
<stop stop-color="#F9CA36"/>
<stop offset="1" stop-color="#F8B830"/>
</linearGradient>
<linearGradient id="paint2_linear_0_878" x1="9.95532" y1="3.79254" x2="13.9162" y2="7.49434" gradientUnits="userSpaceOnUse">
<stop stop-color="#F9CA36"/>
<stop offset="1" stop-color="#F8B830"/>
</linearGradient>
</defs>
</svg>
