<svg width="15" height="9" viewBox="0 0 15 9" fill="none" xmlns="http://www.w3.org/2000/svg">
<path d="M1 8.5L14 8.5C14.2761 8.5 14.5 8.27614 14.5 8L14.5 1C14.5 0.723857 14.2761 0.5 14 0.5L1 0.5C0.723858 0.5 0.5 0.723857 0.5 1L0.5 8C0.5 8.27614 0.723858 8.5 1 8.5Z" stroke="#919191" stroke-linejoin="round"/>
<path d="M7.5 7C8.88071 7 10 5.88071 10 4.5C10 3.11929 8.88071 2 7.5 2C6.11929 2 5 3.11929 5 4.5C5 5.88071 6.11929 7 7.5 7Z" fill="#919191" stroke="#919191" stroke-linecap="round" stroke-linejoin="round"/>
<path d="M14.5 3C13.837 3 13.2011 2.73661 12.7322 2.26777C12.2634 1.79893 12 1.16304 12 0.5" stroke="#919191" stroke-linecap="round" stroke-linejoin="round"/>
<path d="M0.5 3C0.828305 3 1.15339 2.93534 1.45671 2.8097C1.76002 2.68406 2.03562 2.49991 2.26777 2.26777C2.49991 2.03562 2.68406 1.76002 2.8097 1.45671C2.93534 1.15339 3 0.828305 3 0.5" stroke="#919191" stroke-linecap="round" stroke-linejoin="round"/>
<path d="M14.5 6C13.837 6 13.2011 6.26339 12.7322 6.73223C12.2634 7.20107 12 7.83696 12 8.5" stroke="#919191" stroke-linecap="round" stroke-linejoin="round"/>
<path d="M0.5 6C0.828305 6 1.15339 6.06466 1.45671 6.1903C1.76002 6.31594 2.03562 6.50009 2.26777 6.73223C2.49991 6.96438 2.68406 7.23998 2.8097 7.54329C2.93534 7.84661 3 8.1717 3 8.5" stroke="#919191" stroke-linecap="round" stroke-linejoin="round"/>
</svg>
