<svg width="235" height="8" viewBox="0 0 235 8" fill="none" xmlns="http://www.w3.org/2000/svg">
<line x1="0.499999" y1="3.50001" x2="212.5" y2="3.50001" stroke="url(#paint0_linear_1_760)" stroke-linecap="round"/>
<g opacity="0.6">
<path fill-rule="evenodd" clip-rule="evenodd" d="M217.216 3.89825C217.072 4.25029 217 4.63508 217 5.05262C217 5.47015 217.072 5.85907 217.216 6.21928C217.368 6.57135 217.573 6.88245 217.829 7.15261C218.086 7.4146 218.382 7.62339 218.719 7.77894C219.064 7.92631 219.432 8 219.825 8C220.218 8 220.583 7.92631 220.919 7.77894C221.264 7.62339 221.565 7.4146 221.821 7.15261C222.078 6.88245 222.278 6.57135 222.422 6.21928C222.575 5.85907 222.651 5.47015 222.651 5.05262C222.651 4.63508 222.575 4.25029 222.422 3.89825C222.278 3.53801 222.078 3.22691 221.821 2.96492C221.565 2.69475 221.264 2.48598 220.919 2.33861C220.583 2.18305 220.218 2.10528 219.825 2.10528C219.432 2.10528 219.064 2.18305 218.719 2.33861C218.382 2.48598 218.086 2.69475 217.829 2.96492C217.573 3.22691 217.368 3.53801 217.216 3.89825ZM220.679 4.02093C220.911 4.27473 221.028 4.6186 221.028 5.05249C221.028 5.48643 220.911 5.83028 220.679 6.08409C220.446 6.33786 220.162 6.46479 219.825 6.46479C219.488 6.46479 219.204 6.33786 218.971 6.08409C218.739 5.83028 218.623 5.48643 218.623 5.05249C218.623 4.6186 218.739 4.27473 218.971 4.02093C219.204 3.76713 219.488 3.64023 219.825 3.64023C220.162 3.64023 220.446 3.76713 220.679 4.02093Z" fill="url(#paint1_linear_1_760)"/>
<path d="M226.341 2.3158C226.415 2.3158 226.481 2.31988 226.539 2.32803C226.605 2.33618 226.659 2.34432 226.7 2.35248C226.75 2.36063 226.795 2.36877 226.837 2.37692V4.08829C226.787 4.07199 226.729 4.05162 226.663 4.02717C226.605 4.01088 226.539 3.99865 226.465 3.9905C226.39 3.9742 226.308 3.96605 226.217 3.96605C225.902 3.96605 225.646 4.06792 225.448 4.27165C225.257 4.47539 225.162 4.76064 225.162 5.12732V8H223.488V2.37692H224.728L224.976 2.98813C225.076 2.86588 225.195 2.75587 225.336 2.65808C225.452 2.56843 225.592 2.49101 225.758 2.42582C225.931 2.35247 226.126 2.3158 226.341 2.3158Z" fill="url(#paint2_linear_1_760)"/>
<path fill-rule="evenodd" clip-rule="evenodd" d="M232.701 6.0915C232.685 6.13525 232.668 6.1786 232.65 6.2215C232.506 6.5731 232.307 6.88386 232.052 7.15369C231.797 7.41535 231.498 7.62384 231.155 7.77924C230.82 7.92639 230.457 7.99998 230.066 7.99998C229.676 7.99998 229.309 7.92639 228.966 7.77924C228.631 7.62384 228.336 7.41535 228.081 7.15369C227.826 6.88386 227.622 6.5731 227.471 6.2215C227.327 5.86174 227.255 5.47331 227.255 5.05628C227.255 4.63926 227.327 4.25495 227.471 3.90334C227.622 3.54355 227.826 3.23283 228.081 2.97116C228.336 2.70132 228.631 2.49281 228.966 2.34562C229.309 2.19026 229.676 2.11258 230.066 2.11258C230.457 2.11258 230.82 2.19026 231.155 2.34562C231.315 2.41433 231.465 2.49639 231.606 2.59183L235 0L232.465 3.4887C232.951 4.27308 233.029 5.2461 232.701 6.0915ZM231.628 1.26858C231.774 1.41821 232.01 1.41821 232.156 1.26858C232.302 1.11897 232.302 0.876386 232.156 0.726769C232.01 0.577148 231.774 0.577148 231.628 0.726769C231.482 0.876386 231.482 1.11897 231.628 1.26858ZM234.291 3.45728C234.145 3.6069 233.908 3.6069 233.763 3.45728C233.617 3.30766 233.617 3.06508 233.763 2.91546C233.908 2.76585 234.145 2.76585 234.291 2.91546C234.437 3.06508 234.437 3.30766 234.291 3.45728ZM231.451 5.05633C231.451 5.84666 230.827 6.4873 230.056 6.4873C229.285 6.4873 228.66 5.84666 228.66 5.05633C228.66 4.26604 229.285 3.62537 230.056 3.62537C230.827 3.62537 231.451 4.26604 231.451 5.05633ZM230.457 5.46756C230.235 5.69458 229.876 5.69458 229.655 5.46756C229.434 5.24049 229.434 4.87243 229.655 4.6454C229.876 4.41837 230.235 4.41837 230.457 4.6454C230.678 4.87243 230.678 5.24049 230.457 5.46756Z" fill="url(#paint3_linear_1_760)"/>
</g>
<defs>
<linearGradient id="paint0_linear_1_760" x1="0" y1="4.00001" x2="245.825" y2="4.00001" gradientUnits="userSpaceOnUse">
<stop stop-color="#F8B830" stop-opacity="0"/>
<stop offset="1" stop-color="#F8B830"/>
</linearGradient>
<linearGradient id="paint1_linear_1_760" x1="216.362" y1="3.81889" x2="219.476" y2="10.4016" gradientUnits="userSpaceOnUse">
<stop stop-color="#F9CA36"/>
<stop offset="1" stop-color="#F8B830"/>
</linearGradient>
<linearGradient id="paint2_linear_1_760" x1="218.443" y1="4.72513" x2="227.819" y2="11.694" gradientUnits="userSpaceOnUse">
<stop stop-color="#F9CA36"/>
<stop offset="1" stop-color="#F8B830"/>
</linearGradient>
<linearGradient id="paint3_linear_1_760" x1="226.955" y1="3.79254" x2="230.916" y2="7.49435" gradientUnits="userSpaceOnUse">
<stop stop-color="#F9CA36"/>
<stop offset="1" stop-color="#F8B830"/>
</linearGradient>
</defs>
</svg>
