<svg width="4" height="6" viewBox="0 0 4 6" fill="none" xmlns="http://www.w3.org/2000/svg">
<path opacity="0.6" d="M3.01121 0C3.08976 0 3.15955 0.00430067 3.22067 0.012902C3.29051 0.0215033 3.34722 0.0301047 3.39086 0.0387107C3.44326 0.0473121 3.49126 0.0559134 3.53489 0.0645147V1.87096C3.48254 1.85376 3.42142 1.83226 3.35158 1.80645C3.29051 1.78925 3.22067 1.77635 3.14212 1.76774C3.06356 1.75054 2.97629 1.74194 2.8803 1.74194C2.54859 1.74194 2.27806 1.84946 2.06854 2.06451C1.8678 2.27957 1.76745 2.58066 1.76745 2.96772V6H0V0.0645147H1.30919L1.57106 0.709676C1.67581 0.580642 1.80237 0.464514 1.95071 0.361289C2.0729 0.266665 2.2213 0.184943 2.39584 0.116127C2.57915 0.038706 2.78426 0 3.01121 0Z" fill="url(#paint0_linear_0_918)"/>
<defs>
<linearGradient id="paint0_linear_0_918" x1="0.283415" y1="3.54384" x2="3.03758" y2="4.07987" gradientUnits="userSpaceOnUse">
<stop stop-color="#F9CA36"/>
<stop offset="1" stop-color="#F8B830"/>
</linearGradient>
</defs>
</svg>
